<svg width="13" height="15" viewBox="0 0 13 15" fill="none" xmlns="http://www.w3.org/2000/svg">
<path d="M9.07676 0.00750654C9.04488 -0.0281183 7.89645 0.021569 6.89708 1.10625C5.89771 2.19 6.05146 3.43311 6.07396 3.46499C6.09646 3.49686 7.49895 3.54655 8.39426 2.28562C9.28957 1.02469 9.10863 0.0440688 9.07676 0.00750654V0.00750654ZM12.1836 11.0071C12.1386 10.9171 10.0039 9.85027 10.2027 7.79903C10.4014 5.74685 11.773 5.18436 11.7946 5.12342C11.8161 5.06248 11.2349 4.3828 10.6189 4.03874C10.1667 3.79616 9.66619 3.65718 9.15363 3.63186C9.05238 3.62905 8.70082 3.5428 7.97801 3.74061C7.50177 3.87092 6.42833 4.2928 6.13302 4.30967C5.83678 4.32655 4.95553 3.8203 4.00772 3.68624C3.40116 3.56905 2.75804 3.80905 2.29773 3.99374C1.83836 4.17749 0.964613 4.70061 0.353366 6.09091C-0.257881 7.48028 0.0618051 9.68152 0.290554 10.3659C0.519303 11.0493 0.876488 12.1696 1.48399 12.9871C2.02398 13.9096 2.74023 14.5499 3.03929 14.7674C3.33835 14.9849 4.1821 15.1293 4.76709 14.8302C5.23772 14.5415 6.08709 14.3756 6.42271 14.3877C6.7574 14.3999 7.41739 14.5321 8.09333 14.8931C8.62864 15.0777 9.13488 15.0009 9.64207 14.7946C10.1493 14.5874 10.8833 13.8018 11.7402 12.209C12.0655 11.4684 12.2136 11.0681 12.1836 11.0071V11.0071Z" fill="black"/>
</svg>
