<svg width="19" height="17" viewBox="0 0 19 17" fill="none" xmlns="http://www.w3.org/2000/svg">
<path fill-rule="evenodd" clip-rule="evenodd" d="M18.25 8.50041C18.25 8.79049 18.1348 9.06869 17.9297 9.2738C17.7245 9.47892 17.4463 9.59416 17.1563 9.59416H4.48406L9.18063 14.2885C9.28232 14.3902 9.36299 14.5109 9.41802 14.6438C9.47306 14.7767 9.50138 14.9191 9.50138 15.0629C9.50138 15.2067 9.47306 15.3491 9.41802 15.482C9.36299 15.6149 9.28232 15.7356 9.18063 15.8373C9.07893 15.939 8.95821 16.0196 8.82534 16.0747C8.69247 16.1297 8.55007 16.158 8.40625 16.158C8.26244 16.158 8.12003 16.1297 7.98716 16.0747C7.8543 16.0196 7.73357 15.939 7.63188 15.8373L1.06938 9.27478C0.96752 9.17318 0.886707 9.05248 0.831568 8.9196C0.776429 8.78672 0.748047 8.64427 0.748047 8.50041C0.748047 8.35654 0.776429 8.21409 0.831568 8.08121C0.886707 7.94833 0.96752 7.82763 1.06938 7.72603L7.63188 1.16353C7.83725 0.958153 8.11581 0.842773 8.40625 0.842773C8.6967 0.842773 8.97525 0.958153 9.18063 1.16353C9.386 1.36891 9.50138 1.64746 9.50138 1.93791C9.50138 2.22835 9.386 2.5069 9.18063 2.71228L4.48406 7.40666H17.1563C17.4463 7.40666 17.7245 7.52189 17.9297 7.72701C18.1348 7.93213 18.25 8.21032 18.25 8.50041Z" fill="black"/>
</svg>
