<svg width="15" height="15" viewBox="0 0 15 15" fill="none" xmlns="http://www.w3.org/2000/svg">
<g clip-path="url(#clip0_10456_409)">
<path d="M14.5734 6.14862C14.6609 6.65202 14.7045 7.16206 14.7038 7.673C14.7038 9.95487 13.8881 11.8842 12.4688 13.1902H12.4706C11.2294 14.3367 9.52312 15.0005 7.5 15.0005C5.51088 15.0005 3.60322 14.2103 2.1967 12.8038C0.790176 11.3973 0 9.48962 0 7.5005C0 5.51137 0.790176 3.60372 2.1967 2.19719C3.60322 0.790671 5.51088 0.000494894 7.5 0.000494894C9.36182 -0.0213098 11.1599 0.678151 12.5175 1.95237L10.3762 4.09362C9.60223 3.35578 8.56922 2.95174 7.5 2.96862C5.54344 2.96862 3.88125 4.28862 3.28875 6.06612C2.9746 6.99753 2.9746 8.00627 3.28875 8.93768H3.29156C3.88687 10.7124 5.54625 12.0324 7.50281 12.0324C8.51344 12.0324 9.38156 11.7736 10.0547 11.3161H10.0519C10.4427 11.0572 10.7771 10.7217 11.0347 10.33C11.2924 9.93834 11.468 9.4985 11.5509 9.03706H7.5V6.14956H14.5734V6.14862Z" fill="black"/>
</g>
<defs>
<clipPath id="clip0_10456_409">
<rect width="15" height="15" fill="white"/>
</clipPath>
</defs>
</svg>
