<svg width="25" height="25" viewBox="0 0 25 25" fill="none" xmlns="http://www.w3.org/2000/svg">
<path d="M21.875 10.4165C21.875 17.7082 12.5 23.9582 12.5 23.9582C12.5 23.9582 3.125 17.7082 3.125 10.4165C3.125 7.9301 4.11272 5.54553 5.87087 3.78738C7.62903 2.02922 10.0136 1.0415 12.5 1.0415C14.9864 1.0415 17.371 2.02922 19.1291 3.78738C20.8873 5.54553 21.875 7.9301 21.875 10.4165Z" stroke="#1E1E1E" stroke-width="1.5" stroke-linecap="round" stroke-linejoin="round"/>
<path d="M12.5 13.5415C14.2259 13.5415 15.625 12.1424 15.625 10.4165C15.625 8.69061 14.2259 7.2915 12.5 7.2915C10.7741 7.2915 9.375 8.69061 9.375 10.4165C9.375 12.1424 10.7741 13.5415 12.5 13.5415Z" stroke="#1E1E1E" stroke-width="1.5" stroke-linecap="round" stroke-linejoin="round"/>
</svg>
